<svg width="172" height="48" viewBox="0 0 172 48" fill="none" xmlns="http://www.w3.org/2000/svg">
<path d="M62.5277 4.82971L52.1716 43.9017H38.9355L46.4714 16.0402H39.805L49.2732 4.82971H62.5277Z" fill="url(#paint0_linear_4_254)"/>
<path d="M33.2354 15.8467H0L2.99512 4.63965H42.7031L33.2354 15.8467Z" fill="white"/>
<path d="M27.4442 11.5132L19.1298 43.8647H5.89343L15.1473 8.31104L27.4442 11.5132Z" fill="white"/>
<path d="M71.2324 19.4619V17.9506H80.2381V19.4619H76.6074V29.5869H74.8574V19.4619H71.2324ZM83.7906 24.4051V29.5869H82.0918V17.9506H83.7679V22.2801H83.8758C84.0804 21.8104 84.3929 21.4373 84.8133 21.1608C85.2338 20.8843 85.783 20.746 86.4611 20.746C87.0596 20.746 87.5823 20.8691 88.0293 21.1153C88.48 21.3615 88.8285 21.729 89.0747 22.2176C89.3247 22.7024 89.4497 23.3085 89.4497 24.0358V29.5869H87.7508V24.2403C87.7508 23.6002 87.5861 23.104 87.2565 22.7517C86.927 22.3956 86.4686 22.2176 85.8815 22.2176C85.48 22.2176 85.1202 22.3028 84.802 22.4733C84.4876 22.6437 84.2395 22.8937 84.0577 23.2233C83.8796 23.549 83.7906 23.943 83.7906 24.4051ZM97.2452 25.9676V20.8596H98.9497V29.5869H97.2793V28.0756H97.1883C96.9876 28.5415 96.6656 28.9297 96.2224 29.2403C95.783 29.5471 95.2357 29.7006 94.5804 29.7006C94.0198 29.7006 93.5236 29.5774 93.0918 29.3312C92.6637 29.0812 92.3266 28.7119 92.0804 28.2233C91.838 27.7346 91.7168 27.1305 91.7168 26.4108V20.8596H93.4156V26.2062C93.4156 26.8009 93.5804 27.2744 93.9099 27.6267C94.2395 27.979 94.6675 28.1551 95.194 28.1551C95.5122 28.1551 95.8285 28.0756 96.1429 27.9165C96.4611 27.7574 96.7243 27.5168 96.9327 27.1949C97.1448 26.8729 97.2489 26.4638 97.2452 25.9676ZM102.931 24.4051V29.5869H101.232V20.8596H102.863V22.2801H102.971C103.172 21.818 103.486 21.4468 103.914 21.1665C104.346 20.8862 104.89 20.746 105.545 20.746C106.14 20.746 106.66 20.871 107.107 21.121C107.554 21.3672 107.901 21.7346 108.147 22.2233C108.393 22.7119 108.516 23.3161 108.516 24.0358V29.5869H106.818V24.2403C106.818 23.6077 106.653 23.1134 106.323 22.7574C105.994 22.3975 105.541 22.2176 104.965 22.2176C104.571 22.2176 104.221 22.3028 103.914 22.4733C103.611 22.6437 103.371 22.8937 103.193 23.2233C103.018 23.549 102.931 23.943 102.931 24.4051ZM114.062 29.7574C113.357 29.7574 112.729 29.5774 112.176 29.2176C111.626 28.854 111.194 28.3369 110.88 27.6665C110.569 26.9922 110.414 26.1835 110.414 25.2403C110.414 24.2971 110.571 23.4903 110.886 22.8199C111.204 22.1494 111.64 21.6362 112.193 21.2801C112.746 20.924 113.373 20.746 114.073 20.746C114.615 20.746 115.051 20.8369 115.38 21.0187C115.713 21.1968 115.971 21.4051 116.153 21.6437C116.338 21.8824 116.482 22.0926 116.585 22.2744H116.687V17.9506H118.386V29.5869H116.727V28.229H116.585C116.482 28.4146 116.335 28.6267 116.141 28.8653C115.952 29.104 115.691 29.3123 115.357 29.4903C115.024 29.6684 114.592 29.7574 114.062 29.7574ZM114.437 28.3085C114.926 28.3085 115.338 28.1797 115.676 27.9221C116.016 27.6608 116.274 27.299 116.448 26.8369C116.626 26.3748 116.715 25.8369 116.715 25.2233C116.715 24.6172 116.628 24.0869 116.454 23.6324C116.28 23.1778 116.024 22.8237 115.687 22.5699C115.35 22.3161 114.933 22.1892 114.437 22.1892C113.926 22.1892 113.499 22.3218 113.159 22.5869C112.818 22.8521 112.56 23.2138 112.386 23.6721C112.215 24.1305 112.13 24.6475 112.13 25.2233C112.13 25.8066 112.217 26.3312 112.391 26.7971C112.566 27.2631 112.823 27.6324 113.164 27.9051C113.509 28.174 113.933 28.3085 114.437 28.3085ZM124.572 29.7631C123.712 29.7631 122.971 29.5793 122.35 29.2119C121.733 28.8407 121.256 28.3199 120.918 27.6494C120.585 26.9752 120.418 26.1854 120.418 25.2801C120.418 24.3862 120.585 23.5983 120.918 22.9165C121.256 22.2346 121.725 21.7024 122.328 21.3199C122.934 20.9373 123.642 20.746 124.453 20.746C124.945 20.746 125.422 20.8274 125.884 20.9903C126.346 21.1532 126.761 21.4089 127.129 21.7574C127.496 22.1059 127.786 22.5585 127.998 23.1153C128.21 23.6684 128.316 24.3407 128.316 25.1324V25.7346H121.379V24.4619H126.651C126.651 24.0149 126.561 23.6191 126.379 23.2744C126.197 22.9259 125.941 22.6513 125.612 22.4506C125.286 22.2498 124.903 22.1494 124.464 22.1494C123.987 22.1494 123.57 22.2668 123.214 22.5017C122.862 22.7327 122.589 23.0358 122.396 23.4108C122.206 23.782 122.112 24.1854 122.112 24.621V25.6153C122.112 26.1987 122.214 26.6949 122.418 27.104C122.627 27.5131 122.917 27.8256 123.288 28.0415C123.659 28.2536 124.093 28.3596 124.589 28.3596C124.911 28.3596 125.204 28.3142 125.47 28.2233C125.735 28.1286 125.964 27.9884 126.157 27.8028C126.35 27.6172 126.498 27.3881 126.6 27.1153L128.208 27.4051C128.079 27.8786 127.848 28.2934 127.515 28.6494C127.186 29.0017 126.771 29.2763 126.271 29.4733C125.775 29.6665 125.208 29.7631 124.572 29.7631ZM130.201 29.5869V20.8596H131.843V22.246H131.934C132.093 21.7763 132.373 21.407 132.775 21.1381C133.18 20.8653 133.639 20.729 134.15 20.729C134.256 20.729 134.381 20.7327 134.525 20.7403C134.673 20.7479 134.788 20.7574 134.872 20.7687V22.3937C134.803 22.3748 134.682 22.354 134.508 22.3312C134.334 22.3047 134.159 22.2915 133.985 22.2915C133.584 22.2915 133.226 22.3767 132.911 22.5471C132.601 22.7138 132.355 22.9468 132.173 23.246C131.991 23.5415 131.9 23.8786 131.9 24.2574V29.5869H130.201Z" fill="white"/>
<path d="M150.82 23.7687C150.82 25.0112 150.593 26.0793 150.139 26.9733C149.684 27.8634 149.061 28.549 148.269 29.0301C147.481 29.5074 146.586 29.746 145.582 29.746C144.574 29.746 143.675 29.5074 142.883 29.0301C142.095 28.549 141.474 27.8615 141.019 26.9676C140.565 26.0737 140.337 25.0074 140.337 23.7687C140.337 22.5263 140.565 21.46 141.019 20.5699C141.474 19.6759 142.095 18.9903 142.883 18.5131C143.675 18.032 144.574 17.7915 145.582 17.7915C146.586 17.7915 147.481 18.032 148.269 18.5131C149.061 18.9903 149.684 19.6759 150.139 20.5699C150.593 21.46 150.82 22.5263 150.82 23.7687ZM149.082 23.7687C149.082 22.8218 148.928 22.0244 148.622 21.3767C148.319 20.7252 147.902 20.2327 147.372 19.8994C146.845 19.5623 146.248 19.3937 145.582 19.3937C144.911 19.3937 144.313 19.5623 143.786 19.8994C143.26 20.2327 142.843 20.7252 142.536 21.3767C142.233 22.0244 142.082 22.8218 142.082 23.7687C142.082 24.7157 142.233 25.5149 142.536 26.1665C142.843 26.8142 143.26 27.3066 143.786 27.6437C144.313 27.9771 144.911 28.1437 145.582 28.1437C146.248 28.1437 146.845 27.9771 147.372 27.6437C147.902 27.3066 148.319 26.8142 148.622 26.1665C148.928 25.5149 149.082 24.7157 149.082 23.7687ZM154.572 24.4051V29.5869H152.873V20.8596H154.504V22.2801H154.612C154.812 21.818 155.127 21.4468 155.555 21.1665C155.987 20.8862 156.53 20.746 157.186 20.746C157.78 20.746 158.301 20.871 158.748 21.121C159.195 21.3672 159.542 21.7346 159.788 22.2233C160.034 22.7119 160.157 23.3161 160.157 24.0358V29.5869H158.458V24.2403C158.458 23.6077 158.293 23.1134 157.964 22.7574C157.634 22.3975 157.182 22.2176 156.606 22.2176C156.212 22.2176 155.862 22.3028 155.555 22.4733C155.252 22.6437 155.011 22.8937 154.833 23.2233C154.659 23.549 154.572 23.943 154.572 24.4051ZM166.197 29.7631C165.337 29.7631 164.596 29.5793 163.975 29.2119C163.358 28.8407 162.881 28.3199 162.543 27.6494C162.21 26.9752 162.043 26.1854 162.043 25.2801C162.043 24.3862 162.21 23.5983 162.543 22.9165C162.881 22.2346 163.35 21.7024 163.953 21.3199C164.559 20.9373 165.267 20.746 166.078 20.746C166.57 20.746 167.047 20.8274 167.509 20.9903C167.971 21.1532 168.386 21.4089 168.754 21.7574C169.121 22.1059 169.411 22.5585 169.623 23.1153C169.835 23.6684 169.941 24.3407 169.941 25.1324V25.7346H163.004V24.4619H168.276C168.276 24.0149 168.186 23.6191 168.004 23.2744C167.822 22.9259 167.566 22.6513 167.237 22.4506C166.911 22.2498 166.528 22.1494 166.089 22.1494C165.612 22.1494 165.195 22.2668 164.839 22.5017C164.487 22.7327 164.214 23.0358 164.021 23.4108C163.831 23.782 163.737 24.1854 163.737 24.621V25.6153C163.737 26.1987 163.839 26.6949 164.043 27.104C164.252 27.5131 164.542 27.8256 164.913 28.0415C165.284 28.2536 165.718 28.3596 166.214 28.3596C166.536 28.3596 166.829 28.3142 167.095 28.2233C167.36 28.1286 167.589 27.9884 167.782 27.8028C167.975 27.6172 168.123 27.3881 168.225 27.1153L169.833 27.4051C169.704 27.8786 169.473 28.2934 169.14 28.6494C168.811 29.0017 168.396 29.2763 167.896 29.4733C167.4 29.6665 166.833 29.7631 166.197 29.7631Z" fill="#0C60FA"/>
<defs>
<linearGradient id="paint0_linear_4_254" x1="57.7753" y1="18.9386" x2="37.0998" y2="35.4597" gradientUnits="userSpaceOnUse">
<stop offset="0.466346" stop-color="#1165B7"/>
<stop offset="0.495192" stop-color="#0A50BA"/>
</linearGradient>
</defs>
</svg>
